<svg width="270.0818237304687px" height="105.73023681640625px" xmlns="http://www.w3.org/2000/svg" viewBox="114.95908813476564 22.134881591796876 270.0818237304687 105.73023681640625" style="background: rgba(0, 0, 0, 0);" preserveAspectRatio="xMidYMid"><defs><filter id="editing-vr"><feFlood flood-color="#f00" flood-opacity="0.7" result="c1"></feFlood><feFlood flood-color="#00f" flood-opacity="0.7" result="c3"></feFlood><feComposite operator="in" in="c1" in2="SourceAlpha" result="text-c1"></feComposite><feComposite operator="in" in="c3" in2="SourceAlpha" result="text-c3"></feComposite><feOffset in="text-c1" dx="3" dy="-1" result="text1"></feOffset><feOffset in="text-c3" dx="-3" dy="1" result="text3"></feOffset><feBlend in="SourceGraphic" in2="text1" mode="multiply" result="text4"></feBlend><feBlend in="text4" in2="text3" mode="multiply"></feBlend></filter></defs><g filter="url(#editing-vr)"><g transform="translate(120.44054293632507, 107)"><path d="M18.38 0.38L18.38 0.38Q13.03 0.38 10.13-2.53L10.13-2.53L10.13-2.53Q6.91-5.75 6.91-12.47L6.91-12.47L6.91-12.47Q6.91-15.13 7.41-18.38L7.41-18.38L7.41-18.38Q7.91-21.63 8.84-24.88L8.84-24.88L8.84-24.88Q9.84-28.34 11.33-31.50L11.33-31.50L11.33-31.50Q12.81-34.66 14.66-37.03L14.66-37.03L14.66-37.03Q18.94-42.50 24.25-42.50L24.25-42.50L24.25-42.50Q25.22-42.50 25.98-42.39L25.98-42.39L25.98-42.39Q26.75-42.28 27.59-41.97L27.59-41.97L27.59-41.97Q24.81-40.34 22.09-34.91L22.09-34.91L22.09-34.91Q19.59-29.88 18-23.56L18-23.56L18-23.56Q16.38-17.22 16.38-12.22L16.38-12.22L16.38-12.22Q16.38-8.84 17.25-6.91L17.25-6.91L17.25-6.91Q18.19-4.81 20.09-4.81L20.09-4.81L20.09-4.81Q21.66-4.81 23.27-6.03L23.27-6.03L23.27-6.03Q24.88-7.25 26.44-9.47L26.44-9.47L26.44-9.47Q27.94-11.63 29.22-14.48L29.22-14.48L29.22-14.48Q30.50-17.34 31.44-20.59L31.44-20.59L31.44-20.59Q33.47-27.59 33.47-33.84L33.47-33.84L33.47-33.84Q33.47-36.84 33.13-38.88L33.13-38.88L33.13-38.88Q32.78-40.91 31.91-42.25L31.91-42.25L31.91-42.25Q30.97-43.69 29.38-44.38L29.38-44.38L29.38-44.38Q27.78-45.06 25.28-45.06L25.28-45.06L25.28-45.06Q21.63-45.06 18.28-43.92L18.28-43.92L18.28-43.92Q14.94-42.78 12.41-40.66L12.41-40.66L12.41-40.66Q9.78-38.44 8.31-35.38L8.31-35.38L8.31-35.38Q6.84-32.31 6.84-28.59L6.84-28.59L6.84-28.59Q6.84-27.19 7.19-26.16L7.19-26.16L7.19-26.16Q7.28-25.75 7.41-25.56L7.41-25.56L7.41-25.56Q7.50-25.34 7.50-25.16L7.50-25.16L7.50-25.16Q4.31-25.16 2.67-26.42L2.67-26.42L2.67-26.42Q1.03-27.69 1.03-30.53L1.03-30.53L1.03-30.53Q1.03-34.94 4.72-39.06L4.72-39.06L4.72-39.06Q8.34-43.06 14.13-45.47L14.13-45.47L14.13-45.47Q20.22-48 26.81-48L26.81-48L26.81-48Q34.81-48 38.59-43.41L38.59-43.41L38.59-43.41Q41.97-39.28 41.97-31.63L41.97-31.63L41.97-31.63Q41.97-28.41 41.38-24.84L41.38-24.84L41.38-24.84Q40.78-21.28 39.59-17.84L39.59-17.84L39.59-17.84Q38.28-14.09 36.36-10.84L36.36-10.84L36.36-10.84Q34.44-7.59 31.94-5.19L31.94-5.19L31.94-5.19Q26.16 0.38 18.38 0.38L18.38 0.38ZM40.13 0L46.91-32L56.13-32L55.31-28.03L55.31-28.03Q57.50-29.97 58.88-30.78L58.88-30.78L58.88-30.78Q61-32 63.03-32L63.03-32L63.03-32Q65.09-32 66.34-30.53L66.34-30.53L66.34-30.53Q66.91-29.88 67.19-29.02L67.19-29.02L67.19-29.02Q67.47-28.16 67.47-27.19L67.47-27.19L67.47-27.19Q67.47-26.31 67.19-25.50L67.19-25.50L67.19-25.50Q66.91-24.69 66.34-24.03L66.34-24.03L66.34-24.03Q65.72-23.34 64.83-22.94L64.83-22.94L64.83-22.94Q63.94-22.53 62.84-22.53L62.84-22.53L62.84-22.53Q62-22.53 61.50-22.81L61.50-22.81L61.50-22.81Q61-23.09 60.72-23.63L60.72-23.63L60.72-23.63Q60.47-24.16 60.38-24.66L60.38-24.66L60.38-24.66Q60.09-26 59.81-26.44L59.81-26.44L59.81-26.44Q59.59-26.75 59.13-26.75L59.13-26.75L59.13-26.75Q57.78-26.75 56.84-26.19L56.84-26.19L56.84-26.19Q55.91-25.63 54.47-24.31L54.47-24.31L49.34 0L40.13 0ZM77.94 16L77.94 16Q76.44 16 75.14 15.61L75.14 15.61L75.14 15.61Q73.84 15.22 72.91 14.44L72.91 14.44L72.91 14.44Q71.91 13.66 71.34 12.48L71.34 12.48L71.34 12.48Q70.78 11.31 70.78 9.78L70.78 9.78L70.78 9.78Q70.78 6.16 74.19 3.56L74.19 3.56L74.19 3.56Q76.75 1.66 81.22 0.25L81.22 0.25L82-3.13L82-3.13Q78.72 0.38 74.31 0.38L74.31 0.38L74.31 0.38Q70.66 0.38 68.41-1.91L68.41-1.91L68.41-1.91Q65.78-4.59 65.78-9.91L65.78-9.91L65.78-9.91Q65.78-12.16 66.23-14.66L66.23-14.66L66.23-14.66Q66.69-17.16 67.56-19.59L67.56-19.59L67.56-19.59Q69.56-25.09 73.03-28.47L73.03-28.47L73.03-28.47Q77.03-32.31 82.25-32.31L82.25-32.31L82.25-32.31Q84.84-32.31 86.14-31.42L86.14-31.42L86.14-31.42Q87.44-30.53 87.44-29.06L87.44-29.06L87.44-28.69L88.13-32L97.34-32L91-2.31L91-2.31Q94.03-3.31 95.84-5.31L95.84-5.31L95.84-5.31Q97.81-7.47 99.06-11.47L99.06-11.47L101.75-11.47L101.75-11.47Q100.03-5.78 96.63-2.69L96.63-2.69L96.63-2.69Q94.13-0.44 90.44 0.50L90.44 0.50L89.47 5.13L89.47 5.13Q88.25 11.25 84.59 14L84.59 14L84.59 14Q81.94 16 77.94 16L77.94 16ZM78.47-5.81L78.47-5.81Q79.84-5.81 81.38-7.09L81.38-7.09L81.38-7.09Q83.03-8.53 83.59-10.81L83.59-10.81L86.84-25.97L86.84-25.97Q86.84-26.28 86.70-26.69L86.70-26.69L86.70-26.69Q86.56-27.09 86.31-27.44L86.31-27.44L86.31-27.44Q85.56-28.34 84.22-28.34L84.22-28.34L84.22-28.34Q82.94-28.34 81.73-27.50L81.73-27.50L81.73-27.50Q80.53-26.66 79.47-25.16L79.47-25.16L79.47-25.16Q77.59-22.44 76.38-18.06L76.38-18.06L76.38-18.06Q75.81-16.13 75.53-14.23L75.53-14.23L75.53-14.23Q75.25-12.34 75.25-10.81L75.25-10.81L75.25-10.81Q75.25-7.63 76.44-6.50L76.44-6.50L76.44-6.50Q76.84-6.06 77.34-5.94L77.34-5.94L77.34-5.94Q77.84-5.81 78.47-5.81L78.47-5.81ZM76.47 11L76.47 11Q77.47 11 78.53 9.59L78.53 9.59L78.53 9.59Q79.59 8.22 80.19 5.31L80.19 5.31L80.56 3.47L80.56 3.47Q77.66 4.56 76.22 5.69L76.22 5.69L76.22 5.69Q74.31 7.13 74.31 8.91L74.31 8.91L74.31 8.91Q74.31 9.75 74.84 10.31L74.84 10.31L74.84 10.31Q75.44 11 76.47 11L76.47 11ZM106.75 0.38L106.75 0.38Q103.09 0.38 100.84-1.91L100.84-1.91L100.84-1.91Q98.22-4.59 98.22-9.91L98.22-9.91L98.22-9.91Q98.22-12.16 98.67-14.66L98.67-14.66L98.67-14.66Q99.13-17.16 100-19.59L100-19.59L100-19.59Q102-25.09 105.47-28.47L105.47-28.47L105.47-28.47Q109.47-32.31 114.69-32.31L114.69-32.31L114.69-32.31Q117.28-32.31 118.58-31.42L118.58-31.42L118.58-31.42Q119.88-30.53 119.88-29.06L119.88-29.06L119.88-28.59L120.56-32L129.78-32L125.19-10.25L125.19-10.25Q124.91-9.31 124.91-8.19L124.91-8.19L124.91-8.19Q124.91-5.44 127.53-5.44L127.53-5.44L127.53-5.44Q129.28-5.44 130.72-7.22L130.72-7.22L130.72-7.22Q131.94-8.72 132.72-11.47L132.72-11.47L135.41-11.47L135.41-11.47Q133.69-6.59 131.25-3.75L131.25-3.75L131.25-3.75Q129.19-1.41 126.59-0.38L126.59-0.38L126.59-0.38Q124.69 0.38 122.56 0.38L122.56 0.38L122.56 0.38Q119.84 0.38 118.23-1.11L118.23-1.11L118.23-1.11Q116.63-2.59 116.28-5.50L116.28-5.50L116.28-5.50Q114.47-2.94 112.47-1.50L112.47-1.50L112.47-1.50Q109.91 0.38 106.75 0.38L106.75 0.38ZM110.91-5.81L110.91-5.81Q111.63-5.81 112.42-6.19L112.42-6.19L112.42-6.19Q113.22-6.56 113.97-7.25L113.97-7.25L113.97-7.25Q115.66-8.88 116.22-11.47L116.22-11.47L119.28-25.91L119.28-25.91Q119.28-26.22 119.14-26.64L119.14-26.64L119.14-26.64Q119-27.06 118.75-27.44L118.75-27.44L118.75-27.44Q118-28.34 116.66-28.34L116.66-28.34L116.66-28.34Q115.38-28.34 114.17-27.50L114.17-27.50L114.17-27.50Q112.97-26.66 111.91-25.16L111.91-25.16L111.91-25.16Q110.03-22.44 108.81-18.06L108.81-18.06L108.81-18.06Q108.25-16.13 107.97-14.23L107.97-14.23L107.97-14.23Q107.69-12.34 107.69-10.81L107.69-10.81L107.69-10.81Q107.69-7.63 108.88-6.50L108.88-6.50L108.88-6.50Q109.28-6.06 109.78-5.94L109.78-5.94L109.78-5.94Q110.28-5.81 110.91-5.81L110.91-5.81ZM155.81 0.38L155.81 0.38Q151.84 0.38 149.94-1.88L149.94-1.88L149.94-1.88Q148.28-3.81 148.28-6.84L148.28-6.84L148.28-6.84Q148.28-8.28 148.64-10.19L148.64-10.19L148.64-10.19Q149-12.09 149.72-15.09L149.72-15.09L149.72-15.09Q150.44-18.16 150.80-19.98L150.80-19.98L150.80-19.98Q151.16-21.81 151.16-23.16L151.16-23.16L151.16-23.16Q151.16-26.44 148.84-26.44L148.84-26.44L148.84-26.44Q147.22-26.44 145.84-24.72L145.84-24.72L145.84-24.72Q144.69-23.25 143.84-20.53L143.84-20.53L139.50 0L130.28 0L137.06-32L146.28-32L145.59-28.69L145.59-28.69Q147.47-30.78 149.63-31.63L149.63-31.63L149.63-31.63Q151.22-32.25 153.06-32.25L153.06-32.25L153.06-32.25Q156.31-32.25 158.19-30.56L158.19-30.56L158.19-30.56Q160.19-28.72 160.19-25.03L160.19-25.03L160.19-25.03Q160.19-22.81 159.38-19.25L159.38-19.25L159.38-19.25Q159.16-18.22 158.66-16.16L158.66-16.16L158.66-16.16Q157.75-12.69 157.34-10.63L157.34-10.63L157.34-10.63Q157.09-9.31 157.09-8.50L157.09-8.50L157.09-8.50Q157.09-7.22 157.67-6.52L157.67-6.52L157.67-6.52Q158.25-5.81 159.66-5.81L159.66-5.81L159.66-5.81Q161.56-5.81 162.88-7.38L162.88-7.38L162.88-7.38Q163.88-8.56 165.03-11.47L165.03-11.47L167.72-11.47L167.72-11.47Q165.34-4.44 161.72-1.63L161.72-1.63L161.72-1.63Q159.16 0.38 155.81 0.38L155.81 0.38ZM175.72-35.47L175.72-35.47Q174.69-35.47 173.75-35.86L173.75-35.86L173.75-35.86Q172.81-36.25 172.13-36.94L172.13-36.94L172.13-36.94Q171.44-37.59 171.05-38.53L171.05-38.53L171.05-38.53Q170.66-39.47 170.66-40.50L170.66-40.50L170.66-40.50Q170.66-41.53 171.05-42.47L171.05-42.47L171.05-42.47Q171.44-43.41 172.13-44.13L172.13-44.13L172.13-44.13Q172.81-44.84 173.75-45.23L173.75-45.23L173.75-45.23Q174.69-45.63 175.72-45.63L175.72-45.63L175.72-45.63Q176.75-45.63 177.69-45.23L177.69-45.23L177.69-45.23Q178.63-44.84 179.34-44.13L179.34-44.13L179.34-44.13Q180.06-43.41 180.45-42.47L180.45-42.47L180.45-42.47Q180.84-41.53 180.84-40.50L180.84-40.50L180.84-40.50Q180.84-39.47 180.45-38.53L180.45-38.53L180.45-38.53Q180.06-37.59 179.34-36.94L179.34-36.94L179.34-36.94Q178.63-36.25 177.69-35.86L177.69-35.86L177.69-35.86Q176.75-35.47 175.72-35.47L175.72-35.47ZM171.38 0.38L171.38 0.38Q168.31 0.38 166.53-1.44L166.53-1.44L166.53-1.44Q164.53-3.44 164.53-7.28L164.53-7.28L164.53-7.28Q164.53-9.09 165.03-11.47L165.03-11.47L169.38-32L178.59-32L174-10.25L174-10.25Q173.75-9.44 173.75-8.19L173.75-8.19L173.75-8.19Q173.75-6.88 174.36-6.34L174.36-6.34L174.36-6.34Q174.97-5.81 176.34-5.81L176.34-5.81L176.34-5.81Q177.28-5.81 178.17-6.23L178.17-6.23L178.17-6.23Q179.06-6.66 179.81-7.41L179.81-7.41L179.81-7.41Q181.34-8.94 182.13-11.47L182.13-11.47L184.81-11.47L184.81-11.47Q183.09-6.63 180.50-3.75L180.50-3.75L180.50-3.75Q178.31-1.41 175.56-0.38L175.56-0.38L175.56-0.38Q173.56 0.38 171.38 0.38L171.38 0.38ZM182.13 0L198.44-28.53L194.88-28.53L194.88-28.53Q193.16-28.53 192.38-28.38L192.38-28.38L192.38-28.38Q191.34-28.19 191.34-27.53L191.34-27.53L191.34-27.53Q191.34-27.38 191.47-27.34L191.47-27.34L191.47-27.34Q191.72-27.28 191.94-26.91L191.94-26.91L191.94-26.91Q192.03-26.69 192.03-26.13L192.03-26.13L192.03-26.13Q192.03-24.44 190.97-23.53L190.97-23.53L190.97-23.53Q189.97-22.72 188.59-22.72L188.59-22.72L188.59-22.72Q187.47-22.72 186.59-23.44L186.59-23.44L186.59-23.44Q185.66-24.22 185.66-25.53L185.66-25.53L185.66-25.53Q185.66-26.53 186.19-27.67L186.19-27.67L186.19-27.67Q186.72-28.81 187.66-29.75L187.66-29.75L187.66-29.75Q188.66-30.78 190.05-31.39L190.05-31.39L190.05-31.39Q191.44-32 193.06-32L193.06-32L209.53-32L193.84-4.94L193.84-4.94Q194.16-4.91 196.03-4.72L196.03-4.72L196.03-4.72Q197.34-4.53 198.69-4.53L198.69-4.53L198.69-4.53Q200-4.53 200.78-4.81L200.78-4.81L200.78-4.81Q201.56-5.09 201.72-5.81L201.72-5.81L201.72-5.81Q201.09-5.88 200.80-6.23L200.80-6.23L200.80-6.23Q200.50-6.59 200.50-7.16L200.50-7.16L200.50-7.16Q200.50-7.63 200.73-8.11L200.73-8.11L200.73-8.11Q200.97-8.59 201.41-9L201.41-9L201.41-9Q202.47-9.91 204.06-9.91L204.06-9.91L204.06-9.91Q205.50-9.91 206.20-9.06L206.20-9.06L206.20-9.06Q206.91-8.22 206.91-6.84L206.91-6.84L206.91-6.84Q206.91-5.72 206.38-4.52L206.38-4.52L206.38-4.52Q205.84-3.31 204.84-2.31L204.84-2.31L204.84-2.31Q203.78-1.25 202.33-0.63L202.33-0.63L202.33-0.63Q200.88 0 199.09 0L199.09 0L182.13 0ZM218.69 0.38L218.69 0.38Q213.97 0.38 211.41-2L211.41-2L211.41-2Q208.69-4.53 208.69-9.78L208.69-9.78L208.69-9.78Q208.69-11.75 209.08-14.16L209.08-14.16L209.08-14.16Q209.47-16.56 210.25-18.97L210.25-18.97L210.25-18.97Q211.13-21.66 212.48-24.06L212.48-24.06L212.48-24.06Q213.84-26.47 215.66-28.31L215.66-28.31L215.66-28.31Q219.84-32.56 225.97-32.56L225.97-32.56L225.97-32.56Q229.88-32.56 231.66-30.69L231.66-30.69L231.66-30.69Q233.03-29.22 233.03-26.44L233.03-26.44L233.03-26.44Q233.03-23.72 231.84-21.33L231.84-21.33L231.84-21.33Q230.66-18.94 228.56-17.09L228.56-17.09L228.56-17.09Q226.47-15.28 223.81-14.20L223.81-14.20L223.81-14.20Q221.16-13.13 218.31-12.94L218.31-12.94L218.31-12.94Q218.16-11.31 218.16-10.38L218.16-10.38L218.16-10.38Q218.16-7.25 219.34-6.06L219.34-6.06L219.34-6.06Q220.38-5 222.78-5L222.78-5L222.78-5Q226.25-5 229.13-6.88L229.13-6.88L229.13-6.88Q230.34-7.66 231.47-8.73L231.47-8.73L231.47-8.73Q232.59-9.81 234.09-11.47L234.09-11.47L236.28-11.47L236.28-11.47Q233.25-6.34 229.31-3.31L229.31-3.31L229.31-3.31Q224.47 0.38 218.69 0.38L218.69 0.38ZM218.81-16L218.81-16Q220.59-16.13 222.28-17.03L222.28-17.03L222.28-17.03Q223.97-17.94 225.28-19.41L225.28-19.41L225.28-19.41Q226.59-20.91 227.34-22.77L227.34-22.77L227.34-22.77Q228.09-24.63 228.09-26.56L228.09-26.56L228.09-26.56Q228.09-27.84 227.73-28.52L227.73-28.52L227.73-28.52Q227.38-29.19 226.50-29.19L226.50-29.19L226.50-29.19Q225.34-29.19 224.17-28.06L224.17-28.06L224.17-28.06Q223-26.94 221.91-24.97L221.91-24.97L221.91-24.97Q220.91-23.13 220.09-20.78L220.09-20.78L220.09-20.78Q219.28-18.44 218.81-16L218.81-16ZM231.66 0L238.44-32L247.66-32L246.84-28.03L246.84-28.03Q249.03-29.97 250.41-30.78L250.41-30.78L250.41-30.78Q252.53-32 254.56-32L254.56-32L254.56-32Q256.63-32 257.88-30.53L257.88-30.53L257.88-30.53Q258.44-29.88 258.72-29.02L258.72-29.02L258.72-29.02Q259-28.16 259-27.19L259-27.19L259-27.19Q259-26.31 258.72-25.50L258.72-25.50L258.72-25.50Q258.44-24.69 257.88-24.03L257.88-24.03L257.88-24.03Q257.25-23.34 256.36-22.94L256.36-22.94L256.36-22.94Q255.47-22.53 254.38-22.53L254.38-22.53L254.38-22.53Q253.53-22.53 253.03-22.81L253.03-22.81L253.03-22.81Q252.53-23.09 252.25-23.63L252.25-23.63L252.25-23.63Q252-24.16 251.91-24.66L251.91-24.66L251.91-24.66Q251.63-26 251.34-26.44L251.34-26.44L251.34-26.44Q251.13-26.75 250.66-26.75L250.66-26.75L250.66-26.75Q249.31-26.75 248.38-26.19L248.38-26.19L248.38-26.19Q247.44-25.63 246-24.31L246-24.31L240.88 0L231.66 0Z" fill="#444"></path></g></g><style>text {
  font-size: 64px;
  font-family: Arial Black;
  dominant-baseline: central;
  text-anchor: middle;
}</style></svg>