<svg width="252.07836303710937px" height="105.73023681640625px" xmlns="http://www.w3.org/2000/svg" viewBox="123.96081848144532 22.134881591796876 252.07836303710937 105.73023681640625" style="background: rgba(0, 0, 0, 0);" preserveAspectRatio="xMidYMid"><defs><filter id="editing-vr"><feFlood flood-color="#f00" flood-opacity="0.7" result="c1"></feFlood><feFlood flood-color="#00f" flood-opacity="0.7" result="c3"></feFlood><feComposite operator="in" in="c1" in2="SourceAlpha" result="text-c1"></feComposite><feComposite operator="in" in="c3" in2="SourceAlpha" result="text-c3"></feComposite><feOffset in="text-c1" dx="3" dy="-1" result="text1"></feOffset><feOffset in="text-c3" dx="-3" dy="1" result="text3"></feOffset><feBlend in="SourceGraphic" in2="text1" mode="multiply" result="text4"></feBlend><feBlend in="text4" in2="text3" mode="multiply"></feBlend></filter></defs><g filter="url(#editing-vr)"><g transform="translate(131.05188474059105, 102.63999938964844)"><path d="M17.78 0L22.03-19.72L15.88-43.72L15.88-43.72Q11.31-42 8.83-38.39L8.83-38.39L8.83-38.39Q6.34-34.78 6.34-29.50L6.34-29.50L6.34-29.50Q6.34-27.50 6.78-26.31L6.78-26.31L6.78-26.31Q6.91-25.91 7.09-25.59L7.09-25.59L7.09-25.59Q7.22-25.38 7.22-25.16L7.22-25.16L7.22-25.16Q3.75-25.16 2.16-26.53L2.16-26.53L2.16-26.53Q0.38-28.03 0.38-31.38L0.38-31.38L0.38-31.38Q0.38-33.47 1.28-35.52L1.28-35.52L1.28-35.52Q2.19-37.56 3.84-39.47L3.84-39.47L3.84-39.47Q5.41-41.28 7.58-42.86L7.58-42.86L7.58-42.86Q9.75-44.44 12.28-45.59L12.28-45.59L12.28-45.59Q17.59-48 22.84-48L22.84-48L22.84-48Q24.28-48 25.41-47.88L25.41-47.88L30.97-24.97L40.44-47.69L44.69-47.69L32.25-19.72L28.03 0L17.78 0ZM46.03 0.38L46.03 0.38Q42.97 0.38 41.19-1.44L41.19-1.44L41.19-1.44Q39.19-3.44 39.19-7.28L39.19-7.28L39.19-7.28Q39.19-9.09 39.69-11.47L39.69-11.47L44.03-32L53.25-32L48.66-10.25L48.66-10.25Q48.47-9.28 48.47-8.44L48.47-8.44L48.47-8.44Q48.47-5.81 50.38-5.81L50.38-5.81L50.38-5.81Q52.13-5.81 53.53-7.41L53.53-7.41L53.53-7.41Q54.66-8.75 55.50-11.47L55.50-11.47L59.84-32L69.06-32L64.47-10.25L64.47-10.25Q64.19-9.31 64.19-8.19L64.19-8.19L64.19-8.19Q64.19-6.88 64.81-6.34L64.81-6.34L64.81-6.34Q65.44-5.81 66.81-5.81L66.81-5.81L66.81-5.81Q68.59-5.81 70-7.41L70-7.41L70-7.41Q71.25-8.81 72-11.47L72-11.47L74.69-11.47L74.69-11.47Q72.97-6.59 70.53-3.75L70.53-3.75L70.53-3.75Q68.47-1.41 65.88-0.38L65.88-0.38L65.88-0.38Q63.97 0.38 61.84 0.38L61.84 0.38L61.84 0.38Q59.09 0.38 57.47-1.16L57.47-1.16L57.47-1.16Q55.84-2.69 55.50-5.69L55.50-5.69L55.50-5.69Q53.31-2.19 50.56-0.69L50.56-0.69L50.56-0.69Q48.59 0.38 46.03 0.38L46.03 0.38ZM78.34 0.38L78.34 0.38Q75.28 0.38 73.50-1.44L73.50-1.44L73.50-1.44Q71.50-3.44 71.50-7.28L71.50-7.28L71.50-7.28Q71.50-9.09 72-11.47L72-11.47L78.84-43.53L88.31-44.81L80.97-10.25L80.97-10.25Q80.72-9.44 80.72-8.19L80.72-8.19L80.72-8.19Q80.72-6.88 81.33-6.34L81.33-6.34L81.33-6.34Q81.94-5.81 83.31-5.81L83.31-5.81L83.31-5.81Q84.25-5.81 85.14-6.23L85.14-6.23L85.14-6.23Q86.03-6.66 86.78-7.41L86.78-7.41L86.78-7.41Q88.31-8.94 89.09-11.47L89.09-11.47L91.78-11.47L91.78-11.47Q90.06-6.63 87.47-3.75L87.47-3.75L87.47-3.75Q85.28-1.41 82.53-0.38L82.53-0.38L82.53-0.38Q80.53 0.38 78.34 0.38L78.34 0.38ZM99.78-35.47L99.78-35.47Q98.75-35.47 97.81-35.86L97.81-35.86L97.81-35.86Q96.88-36.25 96.19-36.94L96.19-36.94L96.19-36.94Q95.50-37.59 95.11-38.53L95.11-38.53L95.11-38.53Q94.72-39.47 94.72-40.50L94.72-40.50L94.72-40.50Q94.72-41.53 95.11-42.47L95.11-42.47L95.11-42.47Q95.50-43.41 96.19-44.13L96.19-44.13L96.19-44.13Q96.88-44.84 97.81-45.23L97.81-45.23L97.81-45.23Q98.75-45.63 99.78-45.63L99.78-45.63L99.78-45.63Q100.81-45.63 101.75-45.23L101.75-45.23L101.75-45.23Q102.69-44.84 103.41-44.13L103.41-44.13L103.41-44.13Q104.13-43.41 104.52-42.47L104.52-42.47L104.52-42.47Q104.91-41.53 104.91-40.50L104.91-40.50L104.91-40.50Q104.91-39.47 104.52-38.53L104.52-38.53L104.52-38.53Q104.13-37.59 103.41-36.94L103.41-36.94L103.41-36.94Q102.69-36.25 101.75-35.86L101.75-35.86L101.75-35.86Q100.81-35.47 99.78-35.47L99.78-35.47ZM95.44 0.38L95.44 0.38Q92.38 0.38 90.59-1.44L90.59-1.44L90.59-1.44Q88.59-3.44 88.59-7.28L88.59-7.28L88.59-7.28Q88.59-9.09 89.09-11.47L89.09-11.47L93.44-32L102.66-32L98.06-10.25L98.06-10.25Q97.81-9.44 97.81-8.19L97.81-8.19L97.81-8.19Q97.81-6.88 98.42-6.34L98.42-6.34L98.42-6.34Q99.03-5.81 100.41-5.81L100.41-5.81L100.41-5.81Q101.34-5.81 102.23-6.23L102.23-6.23L102.23-6.23Q103.13-6.66 103.88-7.41L103.88-7.41L103.88-7.41Q105.41-8.94 106.19-11.47L106.19-11.47L108.88-11.47L108.88-11.47Q107.16-6.63 104.56-3.75L104.56-3.75L104.56-3.75Q102.38-1.41 99.63-0.38L99.63-0.38L99.63-0.38Q97.63 0.38 95.44 0.38L95.44 0.38ZM113.88 0.38L113.88 0.38Q110.22 0.38 107.97-1.91L107.97-1.91L107.97-1.91Q105.34-4.59 105.34-9.91L105.34-9.91L105.34-9.91Q105.34-12.16 105.80-14.66L105.80-14.66L105.80-14.66Q106.25-17.16 107.13-19.59L107.13-19.59L107.13-19.59Q109.13-25.09 112.59-28.47L112.59-28.47L112.59-28.47Q116.59-32.31 121.81-32.31L121.81-32.31L121.81-32.31Q124.41-32.31 125.70-31.42L125.70-31.42L125.70-31.42Q127-30.53 127-29.06L127-29.06L127-28.59L127.69-32L136.91-32L132.31-10.25L132.31-10.25Q132.03-9.31 132.03-8.19L132.03-8.19L132.03-8.19Q132.03-5.44 134.66-5.44L134.66-5.44L134.66-5.44Q136.41-5.44 137.84-7.22L137.84-7.22L137.84-7.22Q139.06-8.72 139.84-11.47L139.84-11.47L142.53-11.47L142.53-11.47Q140.81-6.59 138.38-3.75L138.38-3.75L138.38-3.75Q136.31-1.41 133.72-0.38L133.72-0.38L133.72-0.38Q131.81 0.38 129.69 0.38L129.69 0.38L129.69 0.38Q126.97 0.38 125.36-1.11L125.36-1.11L125.36-1.11Q123.75-2.59 123.41-5.50L123.41-5.50L123.41-5.50Q121.59-2.94 119.59-1.50L119.59-1.50L119.59-1.50Q117.03 0.38 113.88 0.38L113.88 0.38ZM118.03-5.81L118.03-5.81Q118.75-5.81 119.55-6.19L119.55-6.19L119.55-6.19Q120.34-6.56 121.09-7.25L121.09-7.25L121.09-7.25Q122.78-8.88 123.34-11.47L123.34-11.47L126.41-25.91L126.41-25.91Q126.41-26.22 126.27-26.64L126.27-26.64L126.27-26.64Q126.13-27.06 125.88-27.44L125.88-27.44L125.88-27.44Q125.13-28.34 123.78-28.34L123.78-28.34L123.78-28.34Q122.50-28.34 121.30-27.50L121.30-27.50L121.30-27.50Q120.09-26.66 119.03-25.16L119.03-25.16L119.03-25.16Q117.16-22.44 115.94-18.06L115.94-18.06L115.94-18.06Q115.38-16.13 115.09-14.23L115.09-14.23L115.09-14.23Q114.81-12.34 114.81-10.81L114.81-10.81L114.81-10.81Q114.81-7.63 116-6.50L116-6.50L116-6.50Q116.41-6.06 116.91-5.94L116.91-5.94L116.91-5.94Q117.41-5.81 118.03-5.81L118.03-5.81ZM167.66 7.28L167.66 7.28Q165.91 7.28 164.59 7.13L164.59 7.13L164.59 7.13Q163.28 6.97 162.13 6.38L162.13 6.38L162.13 6.38Q159.09 4.91 159.09 0.50L159.09 0.50L159.09 0.50Q159.09-1.63 159.77-4.59L159.77-4.59L159.77-4.59Q160.44-7.56 161.69-11L161.69-11L161.69-11Q164.44-18.56 168.50-25.53L168.50-25.53L168.50-25.53Q165.31-25.34 163.45-24.58L163.45-24.58L163.45-24.58Q161.59-23.81 161-22.22L161-22.22L161-22.22Q161.28-22.22 161.56-21.56L161.56-21.56L161.56-21.56Q161.84-20.91 161.84-20.22L161.84-20.22L161.84-20.22Q161.84-19.09 160.81-18.41L160.81-18.41L160.81-18.41Q159.78-17.72 158.25-17.72L158.25-17.72L158.25-17.72Q156.53-17.72 155.44-18.66L155.44-18.66L155.44-18.66Q154.28-19.63 154.28-21.44L154.28-21.44L154.28-21.44Q154.28-23.03 155.25-24.48L155.25-24.48L155.25-24.48Q156.22-25.94 158-27L158-27L158-27Q159.81-28.09 162.20-28.70L162.20-28.70L162.20-28.70Q164.59-29.31 167.34-29.31L167.34-29.31L167.34-29.31Q168.69-29.31 170.69-29.13L170.69-29.13L170.69-29.13Q176.06-37.59 181.44-42.41L181.44-42.41L181.44-42.41Q187.69-48 192.94-48L192.94-48L192.94-48Q196.06-48 198-47.09L198-47.09L187.97 0L178.75 0L183.66-23.22L183.66-23.22Q181.34-24.28 179.33-24.81L179.33-24.81L179.33-24.81Q177.31-25.34 175.09-25.53L175.09-25.53L175.09-25.53Q171.47-17.69 169.16-9.50L169.16-9.50L169.16-9.50Q166.78-1.28 166.78 3.72L166.78 3.72L166.78 3.72Q166.78 6.19 167.66 7.28L167.66 7.28ZM184.25-26.06L187.97-43.47L187.97-43.47Q185.19-41.97 182.13-37.81L182.13-37.81L182.13-37.81Q179.13-33.69 176.44-28.28L176.44-28.28L176.44-28.28Q180.81-27.44 184.25-26.06L184.25-26.06ZM194.03 0L200.81-32L210.03-32L209.22-28.03L209.22-28.03Q211.41-29.97 212.78-30.78L212.78-30.78L212.78-30.78Q214.91-32 216.94-32L216.94-32L216.94-32Q219-32 220.25-30.53L220.25-30.53L220.25-30.53Q220.81-29.88 221.09-29.02L221.09-29.02L221.09-29.02Q221.38-28.16 221.38-27.19L221.38-27.19L221.38-27.19Q221.38-26.31 221.09-25.50L221.09-25.50L221.09-25.50Q220.81-24.69 220.25-24.03L220.25-24.03L220.25-24.03Q219.63-23.34 218.73-22.94L218.73-22.94L218.73-22.94Q217.84-22.53 216.75-22.53L216.75-22.53L216.75-22.53Q215.91-22.53 215.41-22.81L215.41-22.81L215.41-22.81Q214.91-23.09 214.63-23.63L214.63-23.63L214.63-23.63Q214.38-24.16 214.28-24.66L214.28-24.66L214.28-24.66Q214-26 213.72-26.44L213.72-26.44L213.72-26.44Q213.50-26.75 213.03-26.75L213.03-26.75L213.03-26.75Q211.69-26.75 210.75-26.19L210.75-26.19L210.75-26.19Q209.81-25.63 208.38-24.31L208.38-24.31L203.25 0L194.03 0ZM226.88 0.38L226.88 0.38Q223.81 0.38 222.03-1.44L222.03-1.44L222.03-1.44Q220.03-3.44 220.03-7.28L220.03-7.28L220.03-7.28Q220.03-9.09 220.53-11.47L220.53-11.47L224.38-29.44L222.25-29.44L222.78-32L224.88-32L226.81-40.84L236.28-42.13L234.09-32L237.94-32L237.44-29.44L233.59-29.44L229.50-10.25L229.50-10.25Q229.25-9.44 229.25-8.19L229.25-8.19L229.25-8.19Q229.25-6.88 229.86-6.34L229.86-6.34L229.86-6.34Q230.47-5.81 231.84-5.81L231.84-5.81L231.84-5.81Q232.78-5.81 233.67-6.23L233.67-6.23L233.67-6.23Q234.56-6.66 235.31-7.41L235.31-7.41L235.31-7.41Q236.84-8.94 237.63-11.47L237.63-11.47L240.31-11.47L240.31-11.47Q238.59-6.63 236-3.75L236-3.75L236-3.75Q233.81-1.41 231.06-0.38L231.06-0.38L231.06-0.38Q229.06 0.38 226.88 0.38L226.88 0.38Z" fill="#444"></path></g></g><style>text {
  font-size: 64px;
  font-family: Arial Black;
  dominant-baseline: central;
  text-anchor: middle;
}</style></svg>